<svg width="40" height="40" viewBox="0 0 40 40" fill="none" xmlns="http://www.w3.org/2000/svg">
<path d="M20 0.526123C12.2105 0.526123 5.78943 6.94718 5.78943 14.7366C5.78943 24.3156 18.421 38.5261 18.8421 39.0524C19.3684 39.5788 20.2105 39.5788 20.6315 39.0524C21.1578 38.4209 33.6842 24.3156 33.6842 14.7366C34.2105 6.94718 27.7894 0.526123 20 0.526123ZM20 21.684C16.1052 21.684 12.9473 18.5261 12.9473 14.6314C12.9473 10.7366 16.1052 7.57875 20 7.57875C23.8947 7.57875 27.0526 10.7366 27.0526 14.6314C27.0526 18.5261 23.8947 21.684 20 21.684Z" fill="#181818"/>
</svg>
