<svg width="40" height="40" viewBox="0 0 40 40" fill="none" xmlns="http://www.w3.org/2000/svg">
<path d="M20.0063 0.74585C9.38768 0.74585 0.746094 9.38744 0.746094 20.006C0.746094 30.6246 9.38768 39.2662 20.0063 39.2662C22.7169 39.2662 25.328 38.7191 27.7899 37.6249C28.4489 37.3265 28.7598 36.5556 28.4614 35.8842C28.1629 35.2252 27.392 34.9143 26.7206 35.2127C24.6068 36.1453 22.3439 36.6302 20.0063 36.6302C10.8425 36.6302 3.38209 29.1698 3.38209 20.006C3.38209 10.8422 10.8425 3.38185 20.0063 3.38185C29.1701 3.38185 36.6305 10.8422 36.6305 20.006C36.6305 21.7468 36.3693 23.4502 35.8347 25.0915C34.7032 28.6228 32.8381 29.7045 31.9429 29.5677C31.0725 29.431 31.0103 28.1378 31.0103 27.7399V12.098C31.0103 11.3769 30.4259 10.78 29.6923 10.78C28.9711 10.78 28.3743 11.3644 28.3743 12.098V12.8689C26.36 10.5065 23.351 9.00199 20.0063 9.00199C13.9385 9.00199 9.01467 13.9383 9.01467 19.9936C9.01467 26.0489 13.9509 30.9852 20.0063 30.9852C23.351 30.9852 26.3476 29.4807 28.3743 27.1182V27.7151C28.3743 30.1024 29.6177 31.8431 31.5325 32.1416C33.808 32.5021 36.7921 30.6992 38.3463 25.8748C38.9556 23.9725 39.2665 21.9955 39.2665 19.9812C39.254 9.38744 30.6124 0.74585 20.0063 0.74585ZM20.0063 28.3616C15.3933 28.3616 11.6382 24.6066 11.6382 19.9936C11.6382 15.3806 15.3933 11.6256 20.0063 11.6256C24.6193 11.6256 28.3743 15.3806 28.3743 19.9936C28.3743 24.6066 24.6068 28.3616 20.0063 28.3616Z" fill="black"/>
</svg>
