<svg width="41" height="40" viewBox="0 0 41 40" fill="none" xmlns="http://www.w3.org/2000/svg">
<path d="M39.2017 31.6481L33.0073 25.4537C31.7708 24.2292 29.73 24.2652 28.4575 25.5377L25.3362 28.6589C25.1441 28.5509 24.9401 28.4309 24.724 28.3108C22.7552 27.2184 20.0541 25.7178 17.221 22.8846C14.3759 20.0395 12.8753 17.3384 11.7828 15.3697C11.6628 15.1656 11.5547 14.9615 11.4467 14.7694L13.5355 12.6806L14.5679 11.6482C15.8524 10.3637 15.8764 8.32285 14.652 7.09836L8.44549 0.903895C7.221 -0.332597 5.18018 -0.296582 3.89567 0.987929L2.15498 2.74063L2.203 2.78865C1.61476 3.53294 1.13457 4.39729 0.762424 5.32165C0.42629 6.21001 0.222208 7.05034 0.12617 7.89068C-0.690155 14.6734 2.40708 20.8678 10.8104 29.2712C22.4311 40.8918 31.7948 40.0155 32.203 39.9674C33.0793 39.8594 33.9316 39.6553 34.784 39.3192C35.7084 38.959 36.5607 38.4669 37.317 37.8906L37.353 37.9266L39.1177 36.1979C40.3902 34.9254 40.4262 32.8846 39.2017 31.6481Z" fill="black"/>
</svg>
